Grotesk-Medium.ufo
<glyph name="exclam" format="1">
  <advance width="371"/>
  <unicode hex="0021"/>
  <outline>
    <contour>
      <point x="132" y="702" type="line"/>
      <point x="250" y="702" type="line"/>
      <point x="250" y="212" type="line"/>
      <point x="132" y="212" type="line"/>
    </contour>
    <contour>
      <point x="100" y="85" type="curve" smooth="yes"/>
      <point x="100" y="132"/>
      <point x="138" y="171"/>
      <point x="186" y="171" type="curve" smooth="yes"/>
      <point x="232" y="171"/>
      <point x="271" y="132"/>
      <point x="271" y="85" type="curve" smooth="yes"/>
      <point x="271" y="38"/>
      <point x="232" y="0"/>
      <point x="186" y="0" type="curve" smooth="yes"/>
      <point x="138" y="0"/>
      <point x="100" y="38"/>
    </contour>
  </outline>
</glyph>
<glyph name="quotedbl" format="1">
  <advance width="518"/>
  <unicode hex="0022"/>
  <outline>
    <contour>
      <point x="218" y="425" type="line"/>
      <point x="100" y="425" type="line"/>
      <point x="100" y="650" type="line"/>
      <point x="218" y="650" type="line"/>
    </contour>
    <contour>
      <point x="418" y="425" type="line"/>
      <point x="300" y="425" type="line"/>
      <point x="300" y="650" type="line"/>
      <point x="418" y="650" type="line"/>
    </contour>
  </outline>
</glyph>
<glyph name="quotesingle" format="1">
  <advance width="318"/>
  <unicode hex="0027"/>
  <outline>
    <contour>
      <point x="218" y="425" type="line"/>
      <point x="100" y="425" type="line"/>
      <point x="100" y="650" type="line"/>
      <point x="218" y="650" type="line"/>
    </contour>
  </outline>
</glyph>
<glyph name="parenleft" format="1">
  <advance width="449"/>
  <unicode hex="0028"/>
  <outline>
    <contour>
      <point x="349" y="0" type="line"/>
      <point x="201" y="0"/>
      <point x="100" y="127"/>
      <point x="100" y="324" type="curve" smooth="yes"/>
      <point x="100" y="522"/>
      <point x="201" y="649"/>
      <point x="349" y="649" type="curve"/>
      <point x="349" y="531" type="line"/>
      <point x="266" y="531"/>
      <point x="218" y="459"/>
      <point x="218" y="324" type="curve" smooth="yes"/>
      <point x="218" y="190"/>
      <point x="266" y="117"/>
      <point x="349" y="117" type="curve"/>
    </contour>
  </outline>
</glyph>
<glyph name="comma" format="1">
  <advance width="419"/>
  <unicode hex="002C"/>
  <outline>
    <contour>
      <point x="217" y="-200" type="line"/>
      <point x="100" y="-200" type="line"/>
      <point x="201" y="0" type="line"/>
      <point x="201" y="122" type="line"/>
      <point x="319" y="122" type="line"/>
      <point x="319" y="0" type="line"/>
    </contour>
  </outline>
</glyph>
<glyph name="hyphen" format="1">
  <advance width="530"/>
  <unicode hex="002D"/>
  <outline>
    <contour>
      <point x="430" y="220" type="line"/>
      <point x="100" y="220" type="line"/>
      <point x="100" y="338" type="line"/>
      <point x="106" y="338" type="line"/>
      <point x="430" y="338" type="line"/>
    </contour>
  </outline>
</glyph>
<glyph name="period" format="1">
  <advance width="371"/>
  <unicode hex="002E"/>
  <outline>
    <contour>
      <point x="271" y="86" type="curve" smooth="yes"/>
      <point x="271" y="39"/>
      <point x="232" y="0"/>
      <point x="186" y="0" type="curve" smooth="yes"/>
      <point x="138" y="0"/>
      <point x="100" y="39"/>
      <point x="100" y="86" type="curve" smooth="yes"/>
      <point x="100" y="132"/>
      <point x="138" y="171"/>
      <point x="186" y="171" type="curve" smooth="yes"/>
      <point x="232" y="171"/>
      <point x="271" y="132"/>
    </contour>
  </outline>
</glyph>
<glyph name="slash" format="1">
  <advance width="461"/>
  <unicode hex="002F"/>
  <outline>
    <contour>
      <point x="221" y="1" type="line"/>
      <point x="100" y="1" type="line"/>
      <point x="240" y="650" type="line"/>
      <point x="361" y="650" type="line"/>
    </contour>
  </outline>
</glyph>
<glyph name="zero" format="1">
  <advance width="620"/>
  <unicode hex="0030"/>
  <outline>
    <contour>
      <point x="520" y="193" type="line" smooth="yes"/>
      <point x="524" y="50"/>
      <point x="418" y="-18"/>
      <point x="312" y="-18" type="curve" smooth="yes"/>
      <point x="207" y="-17"/>
      <point x="100" y="53"/>
      <point x="100" y="193" type="curve" smooth="yes"/>
      <point x="100" y="464" type="line" smooth="yes"/>
      <point x="100" y="606"/>
      <point x="206" y="673"/>
      <point x="312" y="673" type="curve" smooth="yes"/>
      <point x="415" y="673"/>
      <point x="518" y="604"/>
      <point x="520" y="464" type="curve" smooth="yes"/>
    </contour>
    <contour>
      <point x="218" y="464" type="curve" smooth="yes"/>
      <point x="218" y="193" type="line" smooth="yes"/>
      <point x="220" y="127"/>
      <point x="266" y="93"/>
      <point x="312" y="92" type="curve" smooth="yes"/>
      <point x="357" y="92"/>
      <point x="402" y="125"/>
      <point x="402" y="193" type="curve" smooth="yes"/>
      <point x="402" y="464" type="line" smooth="yes"/>
      <point x="402" y="525"/>
      <point x="357" y="556"/>
      <point x="312" y="557" type="curve" smooth="yes"/>
      <point x="265" y="557"/>
      <point x="218" y="526"/>
    </contour>
  </outline>
</glyph>
<glyph name="one" format="1">
  <advance width="431"/>
  <unicode hex="0031"/>
  <outline>
    <contour>
      <point x="331" y="0" type="line"/>
      <point x="214" y="0" type="line"/>
      <point x="214" y="478" type="line"/>
      <point x="100" y="478" type="line"/>
      <point x="217" y="649" type="line"/>
      <point x="331" y="649" type="line"/>
    </contour>
  </outline>
</glyph>
<glyph name="two" format="1">
  <advance width="587"/>
  <unicode hex="0032"/>
  <outline>
    <contour>
      <point x="487" y="0" type="line"/>
      <point x="100" y="0" type="line"/>
      <point x="211" y="330" type="line"/>
      <point x="263" y="330" type="line"/>
      <point x="269" y="330" type="line" smooth="yes"/>
      <point x="324" y="330"/>
      <point x="369" y="375"/>
      <point x="369" y="431" type="curve" smooth="yes"/>
      <point x="369" y="486"/>
      <point x="324" y="531"/>
      <point x="269" y="531" type="curve" smooth="yes"/>
      <point x="263" y="531" type="line"/>
      <point x="157" y="531" type="line"/>
      <point x="157" y="649" type="line"/>
      <point x="274" y="649" type="line" smooth="yes"/>
      <point x="392" y="646"/>
      <point x="487" y="549"/>
      <point x="487" y="431" type="curve" smooth="yes"/>
      <point x="487" y="318"/>
      <point x="401" y="225"/>
      <point x="291" y="214" type="curve"/>
      <point x="259" y="117" type="line"/>
      <point x="487" y="117" type="line"/>
    </contour>
  </outline>
</glyph>
<glyph name="three" format="1">
  <advance width="636"/>
  <unicode hex="0033"/>
  <outline>
    <contour>
      <point x="323" y="0" type="curve" smooth="yes"/>
      <point x="153" y="0" type="line"/>
      <point x="153" y="117" type="line"/>
      <point x="318" y="117" type="line" smooth="yes"/>
      <point x="374" y="117"/>
      <point x="419" y="162"/>
      <point x="419" y="218" type="curve" smooth="yes"/>
      <point x="419" y="274"/>
      <point x="371" y="319"/>
      <point x="318" y="319" type="curve" smooth="yes"/>
      <point x="153" y="319" type="line"/>
      <point x="153" y="436" type="line"/>
      <point x="265" y="436" type="line" smooth="yes"/>
      <point x="291" y="436"/>
      <point x="312" y="458"/>
      <point x="312" y="484" type="curve" smooth="yes"/>
      <point x="312" y="510"/>
      <point x="291" y="531"/>
      <point x="265" y="531" type="curve" smooth="yes"/>
      <point x="212" y="531" type="line"/>
      <point x="100" y="531" type="line"/>
      <point x="100" y="649" type="line"/>
      <point x="271" y="649" type="line" smooth="yes"/>
      <point x="359" y="646"/>
      <point x="430" y="573"/>
      <point x="430" y="484" type="curve" smooth="yes"/>
      <point x="430" y="459"/>
      <point x="424" y="435"/>
      <point x="414" y="414" type="curve"/>
      <point x="486" y="378"/>
      <point x="536" y="304"/>
      <point x="536" y="218" type="curve" smooth="yes"/>
      <point x="536" y="99"/>
      <point x="442" y="3"/>
    </contour>
  </outline>
</glyph>
<glyph name="four" format="1">
  <advance width="638"/>
  <unicode hex="0034"/>
  <outline>
    <contour>
      <point x="484" y="0" type="line"/>
      <point x="367" y="0" type="line"/>
      <point x="368" y="143" type="line"/>
      <point x="100" y="143" type="line"/>
      <point x="212" y="649" type="line"/>
      <point x="325" y="649" type="line"/>
      <point x="245" y="261" type="line"/>
      <point x="368" y="261" type="line"/>
      <point x="367" y="489" type="line"/>
      <point x="484" y="489" type="line"/>
      <point x="485" y="261" type="line"/>
      <point x="538" y="261" type="line"/>
      <point x="538" y="143" type="line"/>
      <point x="485" y="143" type="line"/>
    </contour>
  </outline>
</glyph>
<glyph name="five" format="1">
  <advance width="583"/>
  <unicode hex="0035"/>
  <outline>
    <contour>
      <point x="271" y="0" type="curve" smooth="yes"/>
      <point x="100" y="0" type="line"/>
      <point x="100" y="117" type="line"/>
      <point x="265" y="117" type="line" smooth="yes"/>
      <point x="320" y="117"/>
      <point x="366" y="162"/>
      <point x="366" y="218" type="curve" smooth="yes"/>
      <point x="366" y="274"/>
      <point x="321" y="319"/>
      <point x="265" y="319" type="curve" smooth="yes"/>
      <point x="259" y="319" type="line"/>
      <point x="100" y="319" type="line"/>
      <point x="100" y="649" type="line"/>
      <point x="430" y="649" type="line"/>
      <point x="430" y="531" type="line"/>
      <point x="217" y="531" type="line"/>
      <point x="217" y="436" type="line"/>
      <point x="271" y="436" type="line" smooth="yes"/>
      <point x="388" y="433"/>
      <point x="483" y="337"/>
      <point x="483" y="218" type="curve" smooth="yes"/>
      <point x="483" y="99"/>
      <point x="388" y="3"/>
    </contour>
  </outline>
</glyph>
<glyph name="six" format="1">
  <advance width="620"/>
  <unicode hex="0036"/>
  <outline>
    <contour>
      <point x="520" y="186" type="line" smooth="yes"/>
      <point x="527" y="-89"/>
      <point x="100" y="-84"/>
      <point x="100" y="186" type="curve" smooth="yes"/>
      <point x="100" y="224" type="line"/>
      <point x="100" y="228" type="line"/>
      <point x="100" y="464" type="line" smooth="yes"/>
      <point x="100" y="739"/>
      <point x="517" y="724"/>
      <point x="520" y="464" type="curve" smooth="yes"/>
      <point x="520" y="448" type="line"/>
      <point x="402" y="448" type="line"/>
      <point x="402" y="469" type="line" smooth="yes"/>
      <point x="402" y="582"/>
      <point x="218" y="584"/>
      <point x="218" y="469" type="curve" smooth="yes"/>
      <point x="218" y="408" type="line"/>
      <point x="342" y="458"/>
      <point x="518" y="393"/>
      <point x="520" y="224" type="curve" smooth="yes"/>
    </contour>
    <contour>
      <point x="218" y="229" type="curve" smooth="yes"/>
      <point x="218" y="192" type="line" smooth="yes"/>
      <point x="218" y="66"/>
      <point x="402" y="49"/>
      <point x="402" y="192" type="curve" smooth="yes"/>
      <point x="402" y="229" type="line" smooth="yes"/>
      <point x="402" y="342"/>
      <point x="218" y="344"/>
    </contour>
  </outline>
</glyph>
<glyph name="seven" format="1">
  <advance width="583"/>
  <unicode hex="0037"/>
  <outline>
    <contour>
      <point x="305" y="0" type="line"/>
      <point x="187" y="0" type="line"/>
      <point x="338" y="532" type="line"/>
      <point x="100" y="532" type="line"/>
      <point x="100" y="650" type="line"/>
      <point x="483" y="650" type="line"/>
    </contour>
  </outline>
</glyph>
<glyph name="eight" format="1">
  <advance width="620"/>
  <unicode hex="0038"/>
  <outline>
    <contour>
      <point x="520" y="186" type="line" smooth="yes"/>
      <point x="527" y="-89"/>
      <point x="100" y="-84"/>
      <point x="100" y="186" type="curve" smooth="yes"/>
      <point x="100" y="236" type="line" smooth="yes"/>
      <point x="100" y="271"/>
      <point x="107" y="301"/>
      <point x="119" y="327" type="curve"/>
      <point x="107" y="353"/>
      <point x="100" y="382"/>
      <point x="100" y="416" type="curve" smooth="yes"/>
      <point x="100" y="466" type="line" smooth="yes"/>
      <point x="100" y="741"/>
      <point x="517" y="726"/>
      <point x="520" y="466" type="curve" smooth="yes"/>
      <point x="520" y="416" type="line" smooth="yes"/>
      <point x="521" y="379"/>
      <point x="514" y="347"/>
      <point x="502" y="320" type="curve"/>
      <point x="513" y="296"/>
      <point x="520" y="268"/>
      <point x="520" y="236" type="curve" smooth="yes"/>
    </contour>
    <contour>
      <point x="218" y="241" type="curve" smooth="yes"/>
      <point x="218" y="192" type="line" smooth="yes"/>
      <point x="218" y="66"/>
      <point x="402" y="49"/>
      <point x="402" y="192" type="curve" smooth="yes"/>
      <point x="402" y="241" type="line" smooth="yes"/>
      <point x="402" y="354"/>
      <point x="218" y="356"/>
    </contour>
    <contour>
      <point x="218" y="420" type="line"/>
      <point x="276" y="444"/>
      <point x="344" y="442"/>
      <point x="402" y="416" type="curve"/>
      <point x="402" y="471" type="line" smooth="yes"/>
      <point x="402" y="584"/>
      <point x="218" y="586"/>
      <point x="218" y="471" type="curve" smooth="yes"/>
    </contour>
  </outline>
</glyph>
<glyph name="nine" format="1">
  <advance width="620"/>
  <unicode hex="0039"/>
  <outline>
    <contour>
      <point x="218" y="198" type="line"/>
      <point x="218" y="177" type="line" smooth="yes"/>
      <point x="218" y="64"/>
      <point x="402" y="62"/>
      <point x="402" y="177" type="curve" smooth="yes"/>
      <point x="402" y="238" type="line"/>
      <point x="278" y="188"/>
      <point x="102" y="253"/>
      <point x="100" y="422" type="curve" smooth="yes"/>
      <point x="100" y="460" type="line" smooth="yes"/>
      <point x="93" y="735"/>
      <point x="520" y="730"/>
      <point x="520" y="460" type="curve" smooth="yes"/>
      <point x="520" y="422" type="line"/>
      <point x="520" y="418" type="line"/>
      <point x="520" y="182" type="line" smooth="yes"/>
      <point x="520" y="-93"/>
      <point x="103" y="-78"/>
      <point x="100" y="182" type="curve" smooth="yes"/>
      <point x="100" y="198" type="line"/>
    </contour>
    <contour>
      <point x="218" y="454" type="curve" smooth="yes"/>
      <point x="218" y="417" type="line" smooth="yes"/>
      <point x="218" y="304"/>
      <point x="402" y="302"/>
      <point x="402" y="417" type="curve" smooth="yes"/>
      <point x="402" y="454" type="line" smooth="yes"/>
      <point x="402" y="580"/>
      <point x="218" y="597"/>
    </contour>
  </outline>
</glyph>
<glyph name="colon" format="1">
  <advance width="374"/>
  <unicode hex="003A"/>
  <outline>
    <contour>
      <point x="274" y="86" type="curve" smooth="yes"/>
      <point x="274" y="39"/>
      <point x="235" y="0"/>
      <point x="189" y="0" type="curve" smooth="yes"/>
      <point x="141" y="0"/>
      <point x="103" y="39"/>
      <point x="103" y="86" type="curve" smooth="yes"/>
      <point x="103" y="132"/>
      <point x="141" y="171"/>
      <point x="189" y="171" type="curve" smooth="yes"/>
      <point x="235" y="171"/>
      <point x="274" y="132"/>
    </contour>
    <contour>
      <point x="271" y="312" type="curve" smooth="yes"/>
      <point x="271" y="265"/>
      <point x="232" y="226"/>
      <point x="186" y="226" type="curve" smooth="yes"/>
      <point x="138" y="226"/>
      <point x="100" y="265"/>
      <point x="100" y="312" type="curve" smooth="yes"/>
      <point x="100" y="358"/>
      <point x="138" y="397"/>
      <point x="186" y="397" type="curve" smooth="yes"/>
      <point x="232" y="397"/>
      <point x="271" y="358"/>
    </contour>
  </outline>
</glyph>
<glyph name="semicolon" format="1">
  <advance width="444"/>
  <unicode hex="003B"/>
  <outline>
    <contour>
      <point x="217" y="-200" type="line"/>
      <point x="100" y="-200" type="line"/>
      <point x="201" y="0" type="line"/>
      <point x="201" y="122" type="line"/>
      <point x="319" y="122" type="line"/>
      <point x="319" y="0" type="line"/>
    </contour>
    <contour>
      <point x="344" y="311" type="curve" smooth="yes"/>
      <point x="344" y="264"/>
      <point x="306" y="225"/>
      <point x="259" y="225" type="curve" smooth="yes"/>
      <point x="212" y="225"/>
      <point x="174" y="264"/>
      <point x="174" y="311" type="curve" smooth="yes"/>
      <point x="174" y="358"/>
      <point x="212" y="396"/>
      <point x="259" y="396" type="curve" smooth="yes"/>
      <point x="306" y="396"/>
      <point x="344" y="358"/>
    </contour>
  </outline>
</glyph>
<glyph name="question" format="1">
  <advance width="583"/>
  <unicode hex="003F"/>
  <outline>
    <contour>
      <point x="100" y="702" type="line"/>
      <point x="271" y="702" type="line" smooth="yes"/>
      <point x="388" y="699"/>
      <point x="483" y="603"/>
      <point x="483" y="484" type="curve" smooth="yes"/>
      <point x="483" y="365"/>
      <point x="388" y="269"/>
      <point x="271" y="266" type="curve"/>
      <point x="271" y="213" type="line"/>
      <point x="153" y="213" type="line"/>
      <point x="153" y="383" type="line"/>
      <point x="265" y="383" type="line" smooth="yes"/>
      <point x="321" y="383"/>
      <point x="366" y="428"/>
      <point x="366" y="484" type="curve" smooth="yes"/>
      <point x="366" y="540"/>
      <point x="321" y="585"/>
      <point x="265" y="585" type="curve" smooth="yes"/>
      <point x="100" y="585" type="line"/>
    </contour>
    <contour>
      <point x="132" y="85" type="curve" smooth="yes"/>
      <point x="132" y="132"/>
      <point x="170" y="171"/>
      <point x="217" y="171" type="curve" smooth="yes"/>
      <point x="264" y="171"/>
      <point x="303" y="132"/>
      <point x="303" y="85" type="curve" smooth="yes"/>
      <point x="303" y="38"/>
      <point x="264" y="0"/>
      <point x="217" y="0" type="curve" smooth="yes"/>
      <point x="170" y="0"/>
      <point x="132" y="38"/>
    </contour>
  </outline>
</glyph>
<glyph name="at" format="1">
  <advance width="1222"/>
  <unicode hex="0040"/>
  <outline>
    <contour>
      <point x="649" y="-35" type="curve"/>
      <point x="649" y="-158" type="line"/>
      <point x="320" y="-158"/>
      <point x="100" y="11"/>
      <point x="100" y="281" type="curve" smooth="yes"/>
      <point x="100" y="578"/>
      <point x="308" y="776"/>
      <point x="621" y="776" type="curve" smooth="yes"/>
      <point x="1223" y="776"/>
      <point x="1268" y="89"/>
      <point x="832" y="89" type="curve"/>
      <point x="833" y="89" type="line"/>
      <point x="860" y="0" type="line"/>
      <point x="744" y="0" type="line"/>
      <point x="716" y="89" type="line"/>
      <point x="402" y="89" type="line"/>
      <point x="557" y="575" type="line"/>
      <point x="671" y="575" type="line"/>
      <point x="794" y="202" type="line"/>
      <point x="1113" y="200"/>
      <point x="1071" y="652"/>
      <point x="621" y="652" type="curve" smooth="yes"/>
      <point x="386" y="652"/>
      <point x="230" y="504"/>
      <point x="230" y="281" type="curve" smooth="yes"/>
      <point x="230" y="91"/>
      <point x="398" y="-35"/>
    </contour>
    <contour>
      <point x="614" y="392" type="line"/>
      <point x="551" y="202" type="line"/>
      <point x="677" y="202" type="line"/>
    </contour>
  </outline>
</glyph>
<glyph name="A" format="1">
  <advance width="733"/>
  <unicode hex="0041"/>
  <outline>
    <contour>
      <point x="208" y="0" type="line"/>
      <point x="100" y="0" type="line"/>
      <point x="305" y="648" type="line"/>
      <point x="419" y="648" type="line"/>
      <point x="633" y="0" type="line"/>
      <point x="517" y="0" type="line"/>
      <point x="464" y="158" type="line"/>
      <point x="259" y="158" type="line"/>
    </contour>
    <contour>
      <point x="361" y="465" type="line"/>
      <point x="298" y="275" type="line"/>
      <point x="424" y="275" type="line"/>
    </contour>
  </outline>
</glyph>
<glyph name="C" format="1">
  <advance width="637"/>
  <unicode hex="0043"/>
  <outline>
    <contour>
      <point x="536" y="0" type="line"/>
      <point x="419" y="0" type="line" smooth="yes"/>
      <point x="242" y="0"/>
      <point x="100" y="147"/>
      <point x="100" y="324" type="curve" smooth="yes"/>
      <point x="100" y="502"/>
      <point x="242" y="649"/>
      <point x="419" y="649" type="curve" smooth="yes"/>
      <point x="536" y="649" type="line"/>
      <point x="536" y="531" type="line"/>
      <point x="425" y="531" type="line" smooth="yes"/>
      <point x="310" y="531"/>
      <point x="218" y="439"/>
      <point x="218" y="324" type="curve" smooth="yes"/>
      <point x="218" y="210"/>
      <point x="310" y="117"/>
      <point x="425" y="117" type="curve" smooth="yes"/>
      <point x="536" y="117" type="line"/>
    </contour>
  </outline>
</glyph>
<glyph name="E" format="1">
  <advance width="530"/>
  <unicode hex="0045"/>
  <outline>
    <contour>
      <point x="430" y="0" type="line"/>
      <point x="100" y="0" type="line"/>
      <point x="100" y="649" type="line"/>
      <point x="430" y="649" type="line"/>
      <point x="430" y="531" type="line"/>
      <point x="217" y="531" type="line"/>
      <point x="217" y="383" type="line"/>
      <point x="377" y="383" type="line"/>
      <point x="377" y="266" type="line"/>
      <point x="217" y="266" type="line"/>
      <point x="217" y="117" type="line"/>
      <point x="430" y="117" type="line"/>
    </contour>
  </outline>
</glyph>
<glyph name="F" format="1">
  <advance width="530"/>
  <unicode hex="0046"/>
  <outline>
    <contour>
      <point x="217" y="0" type="line"/>
      <point x="100" y="0" type="line"/>
      <point x="100" y="649" type="line"/>
      <point x="106" y="649" type="line"/>
      <point x="430" y="649" type="line"/>
      <point x="430" y="531" type="line"/>
      <point x="217" y="531" type="line"/>
      <point x="217" y="383" type="line"/>
      <point x="430" y="383" type="line"/>
      <point x="430" y="266" type="line"/>
      <point x="217" y="266" type="line"/>
    </contour>
  </outline>
</glyph>
<glyph name="K" format="1">
  <advance width="639"/>
  <unicode hex="004B"/>
  <outline>
    <contour>
      <point x="539" y="0" type="line"/>
      <point x="421" y="0" type="line"/>
      <point x="314" y="213" type="line"/>
      <point x="217" y="213" type="line"/>
      <point x="217" y="1" type="line"/>
      <point x="100" y="1" type="line"/>
      <point x="100" y="650" type="line"/>
      <point x="111" y="650" type="line"/>
      <point x="217" y="650" type="line"/>
      <point x="217" y="331" type="line"/>
      <point x="261" y="331" type="line"/>
      <point x="396" y="649" type="line"/>
      <point x="523" y="649" type="line"/>
      <point x="376" y="331" type="line"/>
    </contour>
  </outline>
</glyph>
<glyph name="M" format="1">
  <advance width="849"/>
  <unicode hex="004D"/>
  <outline>
    <contour>
      <point x="217" y="0" type="line"/>
      <point x="100" y="0" type="line"/>
      <point x="100" y="649" type="line"/>
      <point x="217" y="649" type="line"/>
      <point x="424" y="387" type="line"/>
      <point x="631" y="649" type="line"/>
      <point x="749" y="649" type="line"/>
      <point x="749" y="0" type="line"/>
      <point x="631" y="0" type="line"/>
      <point x="631" y="467" type="line"/>
      <point x="483" y="266" type="line"/>
      <point x="366" y="266" type="line"/>
      <point x="217" y="467" type="line"/>
    </contour>
  </outline>
</glyph>
<glyph name="O" format="1">
  <advance width="850"/>
  <unicode hex="004F"/>
  <outline>
    <contour>
      <point x="750" y="324" type="curve"/>
      <point x="749" y="130"/>
      <point x="604" y="-15"/>
      <point x="425" y="-15" type="curve" smooth="yes"/>
      <point x="246" y="-15"/>
      <point x="101" y="130"/>
      <point x="100" y="324" type="curve" smooth="yes"/>
      <point x="100" y="513"/>
      <point x="246" y="658"/>
      <point x="425" y="658" type="curve" smooth="yes"/>
      <point x="604" y="658"/>
      <point x="750" y="513"/>
    </contour>
    <contour>
      <point x="237" y="324" type="curve" smooth="yes"/>
      <point x="238" y="184"/>
      <point x="321" y="112"/>
      <point x="425" y="112" type="curve" smooth="yes"/>
      <point x="530" y="112"/>
      <point x="614" y="181"/>
      <point x="613" y="324" type="curve" smooth="yes"/>
      <point x="612" y="465"/>
      <point x="533" y="532"/>
      <point x="429" y="532" type="curve" smooth="yes"/>
      <point x="325" y="532"/>
      <point x="236" y="465"/>
    </contour>
  </outline>
</glyph>
<glyph name="P" format="1">
  <advance width="637"/>
  <unicode hex="0050"/>
  <outline>
    <contour>
      <point x="218" y="0" type="line"/>
      <point x="100" y="0" type="line"/>
      <point x="100" y="649" type="line"/>
      <point x="324" y="649" type="line" smooth="yes"/>
      <point x="442" y="646"/>
      <point x="537" y="549"/>
      <point x="537" y="431" type="curve" smooth="yes"/>
      <point x="537" y="312"/>
      <point x="442" y="215"/>
      <point x="324" y="212" type="curve" smooth="yes"/>
      <point x="218" y="212" type="line"/>
    </contour>
    <contour>
      <point x="217" y="531" type="line"/>
      <point x="217" y="330" type="line"/>
      <point x="318" y="330" type="line" smooth="yes"/>
      <point x="373" y="330"/>
      <point x="418" y="375"/>
      <point x="418" y="431" type="curve" smooth="yes"/>
      <point x="418" y="486"/>
      <point x="373" y="531"/>
      <point x="318" y="531" type="curve" smooth="yes"/>
    </contour>
  </outline>
</glyph>
<glyph name="R" format="1">
  <advance width="637"/>
  <unicode hex="0052"/>
  <outline>
    <contour>
      <point x="217" y="0" type="line"/>
      <point x="100" y="0" type="line"/>
      <point x="100" y="649" type="line"/>
      <point x="324" y="649" type="line" smooth="yes"/>
      <point x="442" y="646"/>
      <point x="537" y="549"/>
      <point x="537" y="431" type="curve" smooth="yes"/>
      <point x="537" y="347"/>
      <point x="490" y="274"/>
      <point x="421" y="238" type="curve"/>
      <point x="537" y="0" type="line"/>
      <point x="412" y="0" type="line"/>
      <point x="306" y="212" type="line"/>
      <point x="217" y="212" type="line"/>
    </contour>
    <contour>
      <point x="217" y="531" type="line"/>
      <point x="217" y="330" type="line"/>
      <point x="318" y="330" type="line" smooth="yes"/>
      <point x="373" y="330"/>
      <point x="418" y="375"/>
      <point x="418" y="431" type="curve" smooth="yes"/>
      <point x="418" y="486"/>
      <point x="373" y="531"/>
      <point x="318" y="531" type="curve" smooth="yes"/>
    </contour>
  </outline>
</glyph>
<glyph name="S" format="1">
  <advance width="637"/>
  <unicode hex="0053"/>
  <outline>
    <contour>
      <point x="324" y="0" type="curve" smooth="yes"/>
      <point x="154" y="0" type="line"/>
      <point x="153" y="117" type="line"/>
      <point x="313" y="117" type="line"/>
      <point x="318" y="117" type="line" smooth="yes"/>
      <point x="374" y="117"/>
      <point x="419" y="162"/>
      <point x="419" y="218" type="curve" smooth="yes"/>
      <point x="419" y="272"/>
      <point x="377" y="316"/>
      <point x="324" y="319" type="curve"/>
      <point x="324" y="213" type="line"/>
      <point x="313" y="213" type="line" smooth="yes"/>
      <point x="194" y="216"/>
      <point x="100" y="312"/>
      <point x="100" y="431" type="curve" smooth="yes"/>
      <point x="100" y="549"/>
      <point x="194" y="646"/>
      <point x="313" y="649" type="curve" smooth="yes"/>
      <point x="430" y="649" type="line"/>
      <point x="430" y="531" type="line"/>
      <point x="324" y="531" type="line"/>
      <point x="318" y="531" type="line" smooth="yes"/>
      <point x="262" y="531"/>
      <point x="217" y="486"/>
      <point x="217" y="431" type="curve" smooth="yes"/>
      <point x="217" y="377"/>
      <point x="259" y="333"/>
      <point x="313" y="330" type="curve"/>
      <point x="313" y="436" type="line"/>
      <point x="324" y="436" type="line" smooth="yes"/>
      <point x="442" y="433"/>
      <point x="537" y="337"/>
      <point x="537" y="218" type="curve" smooth="yes"/>
      <point x="537" y="100"/>
      <point x="442" y="3"/>
    </contour>
  </outline>
</glyph>
<glyph name="V" format="1">
  <advance width="743"/>
  <unicode hex="0056"/>
  <outline>
    <contour>
      <point x="430" y="0" type="line"/>
      <point x="312" y="0" type="line"/>
      <point x="100" y="649" type="line"/>
      <point x="217" y="649" type="line"/>
      <point x="371" y="183" type="line"/>
      <point x="525" y="649" type="line"/>
      <point x="643" y="649" type="line"/>
    </contour>
  </outline>
</glyph>
<glyph name="X" format="1">
  <advance width="637"/>
  <unicode hex="0058"/>
  <outline>
    <contour>
      <point x="218" y="0" type="line"/>
      <point x="100" y="0" type="line"/>
      <point x="259" y="325" type="line"/>
      <point x="100" y="649" type="line"/>
      <point x="212" y="649" type="line"/>
      <point x="319" y="445" type="line"/>
      <point x="419" y="649" type="line"/>
      <point x="537" y="649" type="line"/>
      <point x="378" y="325" type="line"/>
      <point x="537" y="0" type="line"/>
      <point x="419" y="0" type="line"/>
      <point x="319" y="207" type="line"/>
    </contour>
  </outline>
</glyph>
<glyph name="grave" format="1">
  <advance width="362"/>
  <unicode hex="0060"/>
  <outline>
    <contour>
      <point x="262" y="701" type="line"/>
      <point x="145" y="701" type="line"/>
      <point x="100" y="789" type="line"/>
      <point x="218" y="789" type="line"/>
    </contour>
  </outline>
</glyph>
<glyph name="b" format="1">
  <advance width="636"/>
  <unicode hex="0062"/>
  <outline>
    <contour>
      <point x="324" y="0" type="curve" smooth="yes"/>
      <point x="100" y="0" type="line"/>
      <point x="100" y="648" type="line"/>
      <point x="105" y="648" type="line"/>
      <point x="218" y="648" type="line" smooth="yes"/>
      <point x="335" y="645"/>
      <point x="430" y="549"/>
      <point x="430" y="430" type="curve" smooth="yes"/>
      <point x="430" y="422"/>
      <point x="429" y="414"/>
      <point x="428" y="406" type="curve"/>
      <point x="493" y="368"/>
      <point x="536" y="298"/>
      <point x="536" y="218" type="curve" smooth="yes"/>
      <point x="536" y="99"/>
      <point x="441" y="3"/>
    </contour>
    <contour>
      <point x="218" y="212" type="curve"/>
      <point x="218" y="117" type="line"/>
      <point x="318" y="117" type="line" smooth="yes"/>
      <point x="373" y="117"/>
      <point x="419" y="162"/>
      <point x="419" y="218" type="curve" smooth="yes"/>
      <point x="419" y="249"/>
      <point x="405" y="276"/>
      <point x="383" y="295" type="curve"/>
      <point x="344" y="246"/>
      <point x="284" y="214"/>
    </contour>
    <contour>
      <point x="218" y="531" type="curve"/>
      <point x="218" y="330" type="line"/>
      <point x="270" y="333"/>
      <point x="312" y="376"/>
      <point x="312" y="430" type="curve" smooth="yes"/>
      <point x="312" y="484"/>
      <point x="270" y="528"/>
    </contour>
  </outline>
</glyph>
<glyph name="d" format="1">
  <advance width="637"/>
  <unicode hex="0064"/>
  <outline>
    <contour>
      <point x="218" y="0" type="curve" smooth="yes"/>
      <point x="100" y="0" type="line"/>
      <point x="100" y="649" type="line"/>
      <point x="218" y="649" type="line" smooth="yes"/>
      <point x="394" y="646"/>
      <point x="537" y="502"/>
      <point x="537" y="324" type="curve" smooth="yes"/>
      <point x="537" y="147"/>
      <point x="394" y="3"/>
    </contour>
    <contour>
      <point x="218" y="531" type="curve"/>
      <point x="218" y="117" type="line"/>
      <point x="330" y="120"/>
      <point x="419" y="212"/>
      <point x="419" y="324" type="curve" smooth="yes"/>
      <point x="419" y="437"/>
      <point x="330" y="528"/>
    </contour>
  </outline>
</glyph>
<glyph name="g" format="1">
  <advance width="637"/>
  <unicode hex="0067"/>
  <outline>
    <contour>
      <point x="537" y="0" type="line"/>
      <point x="419" y="0" type="line" smooth="yes"/>
      <point x="242" y="4"/>
      <point x="100" y="148"/>
      <point x="100" y="325" type="curve" smooth="yes"/>
      <point x="100" y="502"/>
      <point x="243" y="646"/>
      <point x="419" y="649" type="curve" smooth="yes"/>
      <point x="537" y="649" type="line"/>
      <point x="537" y="532" type="line"/>
      <point x="425" y="532" type="line" smooth="yes"/>
      <point x="311" y="532"/>
      <point x="218" y="439"/>
      <point x="218" y="325" type="curve" smooth="yes"/>
      <point x="218" y="212"/>
      <point x="307" y="121"/>
      <point x="419" y="118" type="curve"/>
      <point x="419" y="333" type="line"/>
      <point x="537" y="333" type="line"/>
    </contour>
  </outline>
</glyph>
<glyph name="h" format="1">
  <advance width="637"/>
  <unicode hex="0068"/>
  <outline>
    <contour>
      <point x="217" y="0" type="line"/>
      <point x="100" y="0" type="line"/>
      <point x="100" y="649" type="line"/>
      <point x="217" y="649" type="line"/>
      <point x="217" y="383" type="line"/>
      <point x="419" y="383" type="line"/>
      <point x="419" y="649" type="line"/>
      <point x="537" y="649" type="line"/>
      <point x="537" y="0" type="line"/>
      <point x="419" y="0" type="line"/>
      <point x="419" y="266" type="line"/>
      <point x="217" y="266" type="line"/>
    </contour>
  </outline>
</glyph>
<glyph name="j" format="1">
  <advance width="530"/>
  <unicode hex="006A"/>
  <outline>
    <contour>
      <point x="430" y="139" type="line"/>
      <point x="427" y="51"/>
      <point x="354" y="-20"/>
      <point x="265" y="-20" type="curve" smooth="yes"/>
      <point x="176" y="-20"/>
      <point x="103" y="51"/>
      <point x="100" y="139" type="curve" smooth="yes"/>
      <point x="100" y="276" type="line"/>
      <point x="218" y="276" type="line"/>
      <point x="218" y="145" type="line" smooth="yes"/>
      <point x="218" y="119"/>
      <point x="239" y="97"/>
      <point x="265" y="97" type="curve" smooth="yes"/>
      <point x="291" y="97"/>
      <point x="312" y="119"/>
      <point x="312" y="145" type="curve" smooth="yes"/>
      <point x="312" y="649" type="line"/>
      <point x="430" y="649" type="line"/>
    </contour>
  </outline>
</glyph>
<glyph name="n" format="1">
  <advance width="637"/>
  <unicode hex="006E"/>
  <outline>
    <contour>
      <point x="218" y="0" type="line"/>
      <point x="100" y="0" type="line"/>
      <point x="100" y="649" type="line"/>
      <point x="218" y="649" type="line"/>
      <point x="419" y="394" type="line"/>
      <point x="419" y="649" type="line"/>
      <point x="537" y="649" type="line"/>
      <point x="537" y="0" type="line"/>
      <point x="419" y="0" type="line"/>
      <point x="419" y="266" type="line"/>
      <point x="366" y="266" type="line"/>
      <point x="218" y="467" type="line"/>
    </contour>
  </outline>
</glyph>
<glyph name="q" format="1">
  <advance width="895"/>
  <unicode hex="0071"/>
  <outline>
    <contour>
      <point x="605" y="40" type="line"/>
      <point x="554" y="5"/>
      <point x="492" y="-15"/>
      <point x="425" y="-15" type="curve" smooth="yes"/>
      <point x="246" y="-15"/>
      <point x="101" y="130"/>
      <point x="100" y="324" type="curve" smooth="yes"/>
      <point x="100" y="513"/>
      <point x="246" y="658"/>
      <point x="425" y="658" type="curve" smooth="yes"/>
      <point x="604" y="658"/>
      <point x="750" y="513"/>
      <point x="750" y="324" type="curve" smooth="yes"/>
      <point x="750" y="245"/>
      <point x="725" y="173"/>
      <point x="684" y="117" type="curve"/>
      <point x="795" y="0" type="line"/>
      <point x="644" y="0" type="line"/>
    </contour>
    <contour>
      <point x="237" y="324" type="curve" smooth="yes"/>
      <point x="238" y="184"/>
      <point x="321" y="112"/>
      <point x="425" y="112" type="curve" smooth="yes"/>
      <point x="458" y="112"/>
      <point x="490" y="119"/>
      <point x="517" y="133" type="curve"/>
      <point x="516" y="134" type="line"/>
      <point x="518" y="134" type="line"/>
      <point x="576" y="165"/>
      <point x="614" y="227"/>
      <point x="613" y="324" type="curve" smooth="yes"/>
      <point x="612" y="465"/>
      <point x="533" y="532"/>
      <point x="429" y="532" type="curve" smooth="yes"/>
      <point x="325" y="532"/>
      <point x="236" y="465"/>
    </contour>
  </outline>
</glyph>
<glyph name="r" format="1">
  <advance width="637"/>
  <unicode hex="0072"/>
  <outline>
    <contour>
      <point x="217" y="0" type="line"/>
      <point x="100" y="0" type="line"/>
      <point x="100" y="649" type="line"/>
      <point x="324" y="649" type="line" smooth="yes"/>
      <point x="441" y="646"/>
      <point x="536" y="549"/>
      <point x="536" y="431" type="curve" smooth="yes"/>
      <point x="536" y="347"/>
      <point x="489" y="274"/>
      <point x="421" y="238" type="curve"/>
      <point x="537" y="0" type="line"/>
      <point x="412" y="0" type="line"/>
      <point x="306" y="212" type="line"/>
      <point x="217" y="212" type="line"/>
    </contour>
    <contour>
      <point x="217" y="531" type="line"/>
      <point x="217" y="330" type="line"/>
      <point x="318" y="330" type="line" smooth="yes"/>
      <point x="373" y="330"/>
      <point x="419" y="375"/>
      <point x="419" y="431" type="curve" smooth="yes"/>
      <point x="419" y="486"/>
      <point x="373" y="531"/>
      <point x="318" y="531" type="curve" smooth="yes"/>
    </contour>
  </outline>
</glyph>
<glyph name="t" format="1">
  <advance width="637"/>
  <unicode hex="0074"/>
  <outline>
    <contour>
      <point x="377" y="0" type="line"/>
      <point x="259" y="0" type="line"/>
      <point x="259" y="532" type="line"/>
      <point x="100" y="532" type="line"/>
      <point x="100" y="650" type="line"/>
      <point x="537" y="650" type="line"/>
      <point x="537" y="532" type="line"/>
      <point x="377" y="532" type="line"/>
    </contour>
  </outline>
</glyph>
<glyph name="u" format="1">
  <advance width="690"/>
  <unicode hex="0075"/>
  <outline>
    <contour>
      <point x="589" y="223" type="line" smooth="yes"/>
      <point x="585" y="92"/>
      <point x="477" y="-13"/>
      <point x="345" y="-13" type="curve" smooth="yes"/>
      <point x="209" y="-13"/>
      <point x="100" y="96"/>
      <point x="100" y="232" type="curve" smooth="yes"/>
      <point x="100" y="649" type="line"/>
      <point x="218" y="649" type="line"/>
      <point x="217" y="232" type="line"/>
      <point x="217" y="161"/>
      <point x="274" y="104"/>
      <point x="345" y="104" type="curve" smooth="yes"/>
      <point x="415" y="104"/>
      <point x="472" y="161"/>
      <point x="472" y="232" type="curve" smooth="yes"/>
      <point x="472" y="649" type="line"/>
      <point x="590" y="649" type="line"/>
    </contour>
  </outline>
</glyph>
<glyph name="w" format="1">
  <advance width="973"/>
  <unicode hex="0077"/>
  <outline>
    <contour>
      <point x="430" y="0" type="line"/>
      <point x="312" y="0" type="line"/>
      <point x="100" y="649" type="line"/>
      <point x="217" y="649" type="line"/>
      <point x="371" y="183" type="line"/>
      <point x="427" y="352" type="line"/>
      <point x="330" y="649" type="line"/>
      <point x="447" y="649" type="line"/>
      <point x="486" y="531" type="line"/>
      <point x="525" y="649" type="line"/>
      <point x="643" y="649" type="line"/>
      <point x="545" y="351" type="line"/>
      <point x="601" y="183" type="line"/>
      <point x="755" y="649" type="line"/>
      <point x="873" y="649" type="line"/>
      <point x="660" y="0" type="line"/>
      <point x="542" y="0" type="line"/>
      <point x="486" y="171" type="line"/>
    </contour>
  </outline>
</glyph>
<glyph name="y" format="1">
  <advance width="637"/>
  <unicode hex="0079"/>
  <outline>
    <contour>
      <point x="377" y="0" type="line"/>
      <point x="260" y="0" type="line"/>
      <point x="260" y="323" type="line"/>
      <point x="100" y="649" type="line"/>
      <point x="218" y="649" type="line"/>
      <point x="319" y="444" type="line"/>
      <point x="419" y="649" type="line"/>
      <point x="537" y="649" type="line"/>
      <point x="377" y="323" type="line"/>
    </contour>
  </outline>
</glyph>
<glyph name="z" format="1">
  <advance width="637"/>
  <unicode hex="007A"/>
  <outline>
    <contour>
      <point x="537" y="0" type="line"/>
      <point x="100" y="0" type="line"/>
      <point x="362" y="531" type="line"/>
      <point x="100" y="531" type="line"/>
      <point x="100" y="649" type="line"/>
      <point x="537" y="649" type="line"/>
      <point x="274" y="117" type="line"/>
      <point x="537" y="117" type="line"/>
    </contour>
  </outline>
</glyph>
<glyph name="guillemotleft" format="1">
  <advance width="750"/>
  <unicode hex="00AB"/>
  <outline>
    <contour>
      <point x="121" y="325" type="line"/>
      <point x="218" y="520" type="line"/>
      <point x="360" y="520" type="line"/>
      <point x="264" y="325" type="line"/>
      <point x="360" y="130" type="line"/>
      <point x="218" y="130" type="line"/>
    </contour>
    <contour>
      <point x="357" y="325" type="line"/>
      <point x="454" y="520" type="line"/>
      <point x="596" y="520" type="line"/>
      <point x="500" y="325" type="line"/>
      <point x="596" y="130" type="line"/>
      <point x="454" y="130" type="line"/>
    </contour>
  </outline>
</glyph>
<glyph name="acute" format="1">
  <advance width="362"/>
  <unicode hex="00B4"/>
  <outline>
    <contour>
      <point x="217" y="701" type="line"/>
      <point x="100" y="701" type="line"/>
      <point x="144" y="789" type="line"/>
      <point x="262" y="789" type="line"/>
    </contour>
  </outline>
</glyph>
<glyph name="guillemotright" format="1">
  <advance width="600"/>
  <unicode hex="00BB"/>
  <outline>
    <contour>
      <point x="306" y="520" type="line"/>
      <point x="448" y="520" type="line"/>
      <point x="545" y="325" type="line"/>
      <point x="448" y="130" type="line"/>
      <point x="306" y="130" type="line"/>
      <point x="402" y="325" type="line"/>
    </contour>
    <contour>
      <point x="70" y="520" type="line"/>
      <point x="212" y="520" type="line"/>
      <point x="309" y="325" type="line"/>
      <point x="212" y="130" type="line"/>
      <point x="70" y="130" type="line"/>
      <point x="166" y="325" type="line"/>
    </contour>
  </outline>
</glyph>
<glyph name="Adieresis" format="1">
  <advance width="733"/>
  <unicode hex="00C4"/>
  <outline>
    <contour>
      <point x="208" y="0" type="line"/>
      <point x="100" y="0" type="line"/>
      <point x="305" y="648" type="line"/>
      <point x="419" y="648" type="line"/>
      <point x="633" y="0" type="line"/>
      <point x="517" y="0" type="line"/>
      <point x="464" y="158" type="line"/>
      <point x="259" y="158" type="line"/>
    </contour>
    <contour>
      <point x="361" y="465" type="line"/>
      <point x="298" y="275" type="line"/>
      <point x="424" y="275" type="line"/>
    </contour>
    <contour>
      <point x="329" y="734" type="curve" smooth="yes"/>
      <point x="329" y="707"/>
      <point x="308" y="685"/>
      <point x="281" y="685" type="curve" smooth="yes"/>
      <point x="254" y="685"/>
      <point x="233" y="707"/>
      <point x="233" y="734" type="curve" smooth="yes"/>
      <point x="233" y="760"/>
      <point x="254" y="782"/>
      <point x="281" y="782" type="curve" smooth="yes"/>
      <point x="308" y="782"/>
      <point x="329" y="760"/>
    </contour>
    <contour>
      <point x="494" y="734" type="curve" smooth="yes"/>
      <point x="494" y="707"/>
      <point x="473" y="685"/>
      <point x="447" y="685" type="curve" smooth="yes"/>
      <point x="419" y="685"/>
      <point x="398" y="707"/>
      <point x="398" y="734" type="curve" smooth="yes"/>
      <point x="398" y="760"/>
      <point x="419" y="782"/>
      <point x="447" y="782" type="curve" smooth="yes"/>
      <point x="473" y="782"/>
      <point x="494" y="760"/>
    </contour>
  </outline>
</glyph>
<glyph name="Eacute" format="1">
  <advance width="530"/>
  <unicode hex="00C9"/>
  <outline>
    <contour>
      <point x="430" y="0" type="line"/>
      <point x="100" y="0" type="line"/>
      <point x="100" y="649" type="line"/>
      <point x="430" y="649" type="line"/>
      <point x="430" y="531" type="line"/>
      <point x="217" y="531" type="line"/>
      <point x="217" y="383" type="line"/>
      <point x="377" y="383" type="line"/>
      <point x="377" y="266" type="line"/>
      <point x="217" y="266" type="line"/>
      <point x="217" y="117" type="line"/>
      <point x="430" y="117" type="line"/>
    </contour>
    <contour>
      <point x="333" y="701" type="line"/>
      <point x="216" y="701" type="line"/>
      <point x="260" y="789" type="line"/>
      <point x="378" y="789" type="line"/>
    </contour>
  </outline>
</glyph>
<glyph name="Idieresis" format="1">
  <advance width="461"/>
  <unicode hex="00CF"/>
  <outline>
    <contour>
      <point x="289" y="1" type="line"/>
      <point x="171" y="1" type="line"/>
      <point x="171" y="650" type="line"/>
      <point x="289" y="650" type="line"/>
    </contour>
    <contour>
      <point x="196" y="734" type="curve" smooth="yes"/>
      <point x="196" y="707"/>
      <point x="175" y="685"/>
      <point x="148" y="685" type="curve" smooth="yes"/>
      <point x="121" y="685"/>
      <point x="100" y="707"/>
      <point x="100" y="734" type="curve" smooth="yes"/>
      <point x="100" y="760"/>
      <point x="121" y="782"/>
      <point x="148" y="782" type="curve" smooth="yes"/>
      <point x="175" y="782"/>
      <point x="196" y="760"/>
    </contour>
    <contour>
      <point x="361" y="734" type="curve" smooth="yes"/>
      <point x="361" y="707"/>
      <point x="340" y="685"/>
      <point x="314" y="685" type="curve" smooth="yes"/>
      <point x="286" y="685"/>
      <point x="265" y="707"/>
      <point x="265" y="734" type="curve" smooth="yes"/>
      <point x="265" y="760"/>
      <point x="286" y="782"/>
      <point x="314" y="782" type="curve" smooth="yes"/>
      <point x="340" y="782"/>
      <point x="361" y="760"/>
    </contour>
  </outline>
</glyph>
<glyph name="Otilde" format="1">
  <advance width="850"/>
  <unicode hex="00D5"/>
  <outline>
    <contour>
      <point x="750" y="324" type="curve"/>
      <point x="749" y="130"/>
      <point x="604" y="-15"/>
      <point x="425" y="-15" type="curve" smooth="yes"/>
      <point x="246" y="-15"/>
      <point x="101" y="130"/>
      <point x="100" y="324" type="curve" smooth="yes"/>
      <point x="100" y="513"/>
      <point x="246" y="658"/>
      <point x="425" y="658" type="curve" smooth="yes"/>
      <point x="604" y="658"/>
      <point x="750" y="513"/>
    </contour>
    <contour>
      <point x="237" y="324" type="curve" smooth="yes"/>
      <point x="238" y="184"/>
      <point x="321" y="112"/>
      <point x="425" y="112" type="curve" smooth="yes"/>
      <point x="530" y="112"/>
      <point x="614" y="181"/>
      <point x="613" y="324" type="curve" smooth="yes"/>
      <point x="612" y="465"/>
      <point x="533" y="532"/>
      <point x="429" y="532" type="curve" smooth="yes"/>
      <point x="325" y="532"/>
      <point x="236" y="465"/>
    </contour>
    <contour>
      <point x="352" y="684" type="curve"/>
      <point x="283" y="684" type="line"/>
      <point x="283" y="757"/>
      <point x="309" y="781"/>
      <point x="343" y="781" type="curve" smooth="yes"/>
      <point x="407" y="781"/>
      <point x="502" y="713"/>
      <point x="502" y="783" type="curve"/>
      <point x="567" y="783" type="line"/>
      <point x="567" y="706"/>
      <point x="539" y="681"/>
      <point x="503" y="681" type="curve" smooth="yes"/>
      <point x="439" y="681"/>
      <point x="352" y="739"/>
    </contour>
  </outline>
</glyph>
<glyph name="Ugrave" format="1">
  <advance width="690"/>
  <unicode hex="00D9"/>
  <outline>
    <contour>
      <point x="589" y="223" type="line" smooth="yes"/>
      <point x="585" y="92"/>
      <point x="477" y="-13"/>
      <point x="345" y="-13" type="curve" smooth="yes"/>
      <point x="209" y="-13"/>
      <point x="100" y="96"/>
      <point x="100" y="232" type="curve" smooth="yes"/>
      <point x="100" y="649" type="line"/>
      <point x="218" y="649" type="line"/>
      <point x="217" y="232" type="line"/>
      <point x="217" y="161"/>
      <point x="274" y="104"/>
      <point x="345" y="104" type="curve" smooth="yes"/>
      <point x="415" y="104"/>
      <point x="472" y="161"/>
      <point x="472" y="232" type="curve" smooth="yes"/>
      <point x="472" y="649" type="line"/>
      <point x="590" y="649" type="line"/>
    </contour>
    <contour>
      <point x="426" y="701" type="line"/>
      <point x="309" y="701" type="line"/>
      <point x="264" y="789" type="line"/>
      <point x="382" y="789" type="line"/>
    </contour>
  </outline>
</glyph>
<glyph name="aacute" format="1">
  <advance width="733"/>
  <unicode hex="00E1"/>
  <outline>
    <contour>
      <point x="208" y="0" type="line"/>
      <point x="100" y="0" type="line"/>
      <point x="305" y="648" type="line"/>
      <point x="419" y="648" type="line"/>
      <point x="633" y="0" type="line"/>
      <point x="517" y="0" type="line"/>
      <point x="464" y="158" type="line"/>
      <point x="259" y="158" type="line"/>
    </contour>
    <contour>
      <point x="361" y="465" type="line"/>
      <point x="298" y="275" type="line"/>
      <point x="424" y="275" type="line"/>
    </contour>
    <contour>
      <point x="422" y="701" type="line"/>
      <point x="305" y="701" type="line"/>
      <point x="349" y="789" type="line"/>
      <point x="467" y="789" type="line"/>
    </contour>
  </outline>
</glyph>
<glyph name="atilde" format="1">
  <advance width="733"/>
  <unicode hex="00E3"/>
  <outline>
    <contour>
      <point x="208" y="0" type="line"/>
      <point x="100" y="0" type="line"/>
      <point x="305" y="648" type="line"/>
      <point x="419" y="648" type="line"/>
      <point x="633" y="0" type="line"/>
      <point x="517" y="0" type="line"/>
      <point x="464" y="158" type="line"/>
      <point x="259" y="158" type="line"/>
    </contour>
    <contour>
      <point x="361" y="465" type="line"/>
      <point x="298" y="275" type="line"/>
      <point x="424" y="275" type="line"/>
    </contour>
    <contour>
      <point x="292" y="684" type="curve"/>
      <point x="223" y="684" type="line"/>
      <point x="223" y="757"/>
      <point x="249" y="781"/>
      <point x="283" y="781" type="curve" smooth="yes"/>
      <point x="347" y="781"/>
      <point x="442" y="713"/>
      <point x="442" y="783" type="curve"/>
      <point x="507" y="783" type="line"/>
      <point x="507" y="706"/>
      <point x="479" y="681"/>
      <point x="443" y="681" type="curve" smooth="yes"/>
      <point x="379" y="681"/>
      <point x="292" y="739"/>
    </contour>
  </outline>
</glyph>
<glyph name="ecircumflex" format="1">
  <advance width="532"/>
  <unicode hex="00EA"/>
  <outline>
    <contour>
      <point x="430" y="0" type="line"/>
      <point x="100" y="0" type="line"/>
      <point x="100" y="649" type="line"/>
      <point x="430" y="649" type="line"/>
      <point x="430" y="531" type="line"/>
      <point x="217" y="531" type="line"/>
      <point x="217" y="383" type="line"/>
      <point x="377" y="383" type="line"/>
      <point x="377" y="266" type="line"/>
      <point x="217" y="266" type="line"/>
      <point x="217" y="117" type="line"/>
      <point x="430" y="117" type="line"/>
    </contour>
    <contour>
      <point x="432" y="701" type="line"/>
      <point x="102" y="701" type="line"/>
      <point x="204" y="780" type="line"/>
      <point x="330" y="780" type="line"/>
    </contour>
  </outline>
</glyph>
<glyph name="edieresis" format="1">
  <advance width="530"/>
  <unicode hex="00EB"/>
  <outline>
    <contour>
      <point x="430" y="0" type="line"/>
      <point x="100" y="0" type="line"/>
      <point x="100" y="649" type="line"/>
      <point x="430" y="649" type="line"/>
      <point x="430" y="531" type="line"/>
      <point x="217" y="531" type="line"/>
      <point x="217" y="383" type="line"/>
      <point x="377" y="383" type="line"/>
      <point x="377" y="266" type="line"/>
      <point x="217" y="266" type="line"/>
      <point x="217" y="117" type="line"/>
      <point x="430" y="117" type="line"/>
    </contour>
    <contour>
      <point x="233" y="741" type="curve" smooth="yes"/>
      <point x="233" y="714"/>
      <point x="212" y="692"/>
      <point x="185" y="692" type="curve" smooth="yes"/>
      <point x="158" y="692"/>
      <point x="137" y="714"/>
      <point x="137" y="741" type="curve" smooth="yes"/>
      <point x="137" y="767"/>
      <point x="158" y="789"/>
      <point x="185" y="789" type="curve" smooth="yes"/>
      <point x="212" y="789"/>
      <point x="233" y="767"/>
    </contour>
    <contour>
      <point x="398" y="741" type="curve" smooth="yes"/>
      <point x="398" y="714"/>
      <point x="377" y="692"/>
      <point x="351" y="692" type="curve" smooth="yes"/>
      <point x="323" y="692"/>
      <point x="302" y="714"/>
      <point x="302" y="741" type="curve" smooth="yes"/>
      <point x="302" y="767"/>
      <point x="323" y="789"/>
      <point x="351" y="789" type="curve" smooth="yes"/>
      <point x="377" y="789"/>
      <point x="398" y="767"/>
    </contour>
  </outline>
</glyph>
<glyph name="igrave" format="1">
  <advance width="363"/>
  <unicode hex="00EC"/>
  <outline>
    <contour>
      <point x="263" y="1" type="line"/>
      <point x="145" y="1" type="line"/>
      <point x="145" y="650" type="line"/>
      <point x="263" y="650" type="line"/>
    </contour>
    <contour>
      <point x="262" y="701" type="line"/>
      <point x="145" y="701" type="line"/>
      <point x="100" y="789" type="line"/>
      <point x="218" y="789" type="line"/>
    </contour>
  </outline>
</glyph>
<glyph name="iacute" format="1">
  <advance width="362"/>
  <unicode hex="00ED"/>
  <outline>
    <contour>
      <point x="218" y="1" type="line"/>
      <point x="100" y="1" type="line"/>
      <point x="100" y="650" type="line"/>
      <point x="218" y="650" type="line"/>
    </contour>
    <contour>
      <point x="217" y="701" type="line"/>
      <point x="100" y="701" type="line"/>
      <point x="144" y="789" type="line"/>
      <point x="262" y="789" type="line"/>
    </contour>
  </outline>
</glyph>
<glyph name="icircumflex" format="1">
  <advance width="530"/>
  <unicode hex="00EE"/>
  <outline>
    <contour>
      <point x="325" y="1" type="line"/>
      <point x="207" y="1" type="line"/>
      <point x="207" y="650" type="line"/>
      <point x="325" y="650" type="line"/>
    </contour>
    <contour>
      <point x="430" y="701" type="line"/>
      <point x="100" y="701" type="line"/>
      <point x="202" y="780" type="line"/>
      <point x="328" y="780" type="line"/>
    </contour>
  </outline>
</glyph>
<glyph name="ntilde" format="1">
  <advance width="600"/>
  <unicode hex="00F1"/>
  <outline>
    <contour>
      <point x="218" y="0" type="line"/>
      <point x="100" y="0" type="line"/>
      <point x="100" y="649" type="line"/>
      <point x="218" y="649" type="line"/>
      <point x="419" y="394" type="line"/>
      <point x="419" y="649" type="line"/>
      <point x="537" y="649" type="line"/>
      <point x="537" y="0" type="line"/>
      <point x="419" y="0" type="line"/>
      <point x="419" y="266" type="line"/>
      <point x="366" y="266" type="line"/>
      <point x="218" y="467" type="line"/>
    </contour>
    <contour>
      <point x="246" y="684" type="curve"/>
      <point x="177" y="684" type="line"/>
      <point x="177" y="757"/>
      <point x="203" y="781"/>
      <point x="237" y="781" type="curve" smooth="yes"/>
      <point x="301" y="781"/>
      <point x="396" y="713"/>
      <point x="396" y="783" type="curve"/>
      <point x="461" y="783" type="line"/>
      <point x="461" y="706"/>
      <point x="433" y="681"/>
      <point x="397" y="681" type="curve" smooth="yes"/>
      <point x="333" y="681"/>
      <point x="246" y="739"/>
    </contour>
  </outline>
</glyph>
<glyph name="udieresis" format="1">
  <advance width="690"/>
  <unicode hex="00FC"/>
  <outline>
    <contour>
      <point x="589" y="223" type="line" smooth="yes"/>
      <point x="585" y="92"/>
      <point x="477" y="-13"/>
      <point x="345" y="-13" type="curve" smooth="yes"/>
      <point x="209" y="-13"/>
      <point x="100" y="96"/>
      <point x="100" y="232" type="curve" smooth="yes"/>
      <point x="100" y="649" type="line"/>
      <point x="218" y="649" type="line"/>
      <point x="217" y="232" type="line"/>
      <point x="217" y="161"/>
      <point x="274" y="104"/>
      <point x="345" y="104" type="curve" smooth="yes"/>
      <point x="415" y="104"/>
      <point x="472" y="161"/>
      <point x="472" y="232" type="curve" smooth="yes"/>
      <point x="472" y="649" type="line"/>
      <point x="590" y="649" type="line"/>
    </contour>
    <contour>
      <point x="310" y="734" type="curve" smooth="yes"/>
      <point x="310" y="707"/>
      <point x="289" y="685"/>
      <point x="262" y="685" type="curve" smooth="yes"/>
      <point x="235" y="685"/>
      <point x="214" y="707"/>
      <point x="214" y="734" type="curve" smooth="yes"/>
      <point x="214" y="760"/>
      <point x="235" y="782"/>
      <point x="262" y="782" type="curve" smooth="yes"/>
      <point x="289" y="782"/>
      <point x="310" y="760"/>
    </contour>
    <contour>
      <point x="475" y="734" type="curve" smooth="yes"/>
      <point x="475" y="707"/>
      <point x="454" y="685"/>
      <point x="428" y="685" type="curve" smooth="yes"/>
      <point x="400" y="685"/>
      <point x="379" y="707"/>
      <point x="379" y="734" type="curve" smooth="yes"/>
      <point x="379" y="760"/>
      <point x="400" y="782"/>
      <point x="428" y="782" type="curve" smooth="yes"/>
      <point x="454" y="782"/>
      <point x="475" y="760"/>
    </contour>
  </outline>
</glyph>
<glyph name="circumflex" format="1">
  <advance width="530"/>
  <unicode hex="02C6"/>
  <outline>
    <contour>
      <point x="430" y="701" type="line"/>
      <point x="100" y="701" type="line"/>
      <point x="202" y="780" type="line"/>
      <point x="328" y="780" type="line"/>
    </contour>
  </outline>
</glyph>
<glyph name="tilde" format="1">
  <advance width="484"/>
  <unicode hex="02DC"/>
  <outline>
    <contour>
      <point x="169" y="684" type="curve"/>
      <point x="100" y="684" type="line"/>
      <point x="100" y="757"/>
      <point x="126" y="781"/>
      <point x="160" y="781" type="curve" smooth="yes"/>
      <point x="224" y="781"/>
      <point x="319" y="713"/>
      <point x="319" y="783" type="curve"/>
      <point x="384" y="783" type="line"/>
      <point x="384" y="706"/>
      <point x="356" y="681"/>
      <point x="320" y="681" type="curve" smooth="yes"/>
      <point x="256" y="681"/>
      <point x="169" y="739"/>
    </contour>
  </outline>
</glyph>
<glyph name="quoteleft" format="1">
  <advance width="424"/>
  <unicode hex="2018"/>
  <outline>
    <contour>
      <point x="207" y="425" type="line"/>
      <point x="100" y="649" type="line"/>
      <point x="218" y="649" type="line"/>
      <point x="324" y="425" type="line"/>
    </contour>
  </outline>
</glyph>
<glyph name="quoteright" format="1">
  <advance width="424"/>
  <unicode hex="2019"/>
  <outline>
    <contour>
      <point x="217" y="425" type="line"/>
      <point x="100" y="425" type="line"/>
      <point x="206" y="649" type="line"/>
      <point x="324" y="649" type="line"/>
    </contour>
  </outline>
</glyph>
<glyph name="quotedblleft" format="1">
  <advance width="624"/>
  <unicode hex="201C"/>
  <outline>
    <contour>
      <point x="407" y="425" type="line"/>
      <point x="300" y="649" type="line"/>
      <point x="418" y="649" type="line"/>
      <point x="524" y="425" type="line"/>
    </contour>
    <contour>
      <point x="207" y="425" type="line"/>
      <point x="100" y="649" type="line"/>
      <point x="218" y="649" type="line"/>
      <point x="324" y="425" type="line"/>
    </contour>
  </outline>
</glyph>
<glyph name="quotedblright" format="1">
  <advance width="624"/>
  <unicode hex="201D"/>
  <outline>
    <contour>
      <point x="217" y="425" type="line"/>
      <point x="100" y="425" type="line"/>
      <point x="206" y="649" type="line"/>
      <point x="324" y="649" type="line"/>
    </contour>
    <contour>
      <point x="417" y="425" type="line"/>
      <point x="300" y="425" type="line"/>
      <point x="406" y="649" type="line"/>
      <point x="524" y="649" type="line"/>
    </contour>
  </outline>
</glyph>
